<svg width="124" height="28" viewBox="0 0 124 28" fill="none" xmlns="http://www.w3.org/2000/svg">
<g clip-path="url(#clip0_1_4)">
<path d="M0.848 22V0.803999H4.012V22H0.848ZM14.8233 22.336C13.3113 22.336 11.9673 21.9907 10.7913 21.3C9.63395 20.5907 8.72861 19.6387 8.07528 18.444C7.42195 17.2307 7.09528 15.8773 7.09528 14.384C7.09528 12.8533 7.42195 11.5 8.07528 10.324C8.74728 9.148 9.64328 8.224 10.7633 7.552C11.8833 6.86133 13.1526 6.516 14.5713 6.516C15.7099 6.516 16.7273 6.712 17.6233 7.104C18.5193 7.496 19.2753 8.03733 19.8913 8.728C20.5073 9.4 20.9739 10.1747 21.2913 11.052C21.6273 11.9293 21.7953 12.8627 21.7953 13.852C21.7953 14.0947 21.7859 14.3467 21.7673 14.608C21.7486 14.8693 21.7113 15.112 21.6553 15.336H9.58728V12.816H19.8633L18.3513 13.964C18.5379 13.0493 18.4726 12.2373 18.1553 11.528C17.8566 10.8 17.3899 10.2307 16.7553 9.82C16.1393 9.39067 15.4113 9.176 14.5713 9.176C13.7313 9.176 12.9846 9.39067 12.3313 9.82C11.6779 10.2307 11.1739 10.828 10.8193 11.612C10.4646 12.3773 10.3246 13.3107 10.3993 14.412C10.3059 15.4387 10.4459 16.3347 10.8193 17.1C11.2113 17.8653 11.7526 18.4627 12.4433 18.892C13.1526 19.3213 13.9553 19.536 14.8513 19.536C15.7659 19.536 16.5406 19.3307 17.1753 18.92C17.8286 18.5093 18.3419 17.9773 18.7153 17.324L21.2913 18.584C20.9926 19.2933 20.5259 19.9373 19.8913 20.516C19.2753 21.076 18.5286 21.524 17.6513 21.86C16.7926 22.1773 15.8499 22.336 14.8233 22.336ZM29.2824 22.336C28.2558 22.336 27.3504 22.1587 26.5664 21.804C25.8011 21.4307 25.2038 20.9267 24.7744 20.292C24.3451 19.6387 24.1304 18.8733 24.1304 17.996C24.1304 17.1747 24.3078 16.4373 24.6624 15.784C25.0358 15.1307 25.6051 14.58 26.3704 14.132C27.1358 13.684 28.0971 13.3667 29.2544 13.18L34.5184 12.312V14.804L29.8704 15.616C29.0304 15.7653 28.4144 16.036 28.0224 16.428C27.6304 16.8013 27.4344 17.2867 27.4344 17.884C27.4344 18.4627 27.6491 18.9387 28.0784 19.312C28.5264 19.6667 29.0958 19.844 29.7864 19.844C30.6451 19.844 31.3918 19.6573 32.0264 19.284C32.6798 18.9107 33.1838 18.416 33.5384 17.8C33.8931 17.1653 34.0704 16.4653 34.0704 15.7V11.808C34.0704 11.0613 33.7904 10.4547 33.2304 9.988C32.6891 9.50267 31.9611 9.26 31.0464 9.26C30.2064 9.26 29.4691 9.484 28.8344 9.932C28.2184 10.3613 27.7611 10.9213 27.4624 11.612L24.8304 10.296C25.1104 9.54933 25.5678 8.896 26.2024 8.336C26.8371 7.75733 27.5744 7.30933 28.4144 6.992C29.2731 6.67467 30.1784 6.516 31.1304 6.516C32.3251 6.516 33.3798 6.74 34.2944 7.188C35.2278 7.636 35.9464 8.26133 36.4504 9.064C36.9731 9.848 37.2344 10.7627 37.2344 11.808V22H34.2104V19.256L34.8544 19.34C34.4998 19.956 34.0424 20.488 33.4824 20.936C32.9411 21.384 32.3158 21.7293 31.6064 21.972C30.9158 22.2147 30.1411 22.336 29.2824 22.336ZM47.9339 22.336C46.4779 22.336 45.1713 21.9907 44.0139 21.3C42.8753 20.5907 41.9699 19.6387 41.2979 18.444C40.6446 17.2493 40.3179 15.9053 40.3179 14.412C40.3179 12.9187 40.6539 11.5747 41.3259 10.38C41.9979 9.18533 42.9033 8.24267 44.0419 7.552C45.1806 6.86133 46.4686 6.516 47.9059 6.516C49.1193 6.516 50.1926 6.75867 51.1259 7.244C52.0593 7.72933 52.7966 8.40133 53.3379 9.26L52.8619 9.988V0.803999H55.9979V22H53.0019V18.92L53.3659 19.508C52.8433 20.4227 52.0966 21.1227 51.1259 21.608C50.1553 22.0933 49.0913 22.336 47.9339 22.336ZM48.2419 19.396C49.1193 19.396 49.9033 19.1813 50.5939 18.752C51.3033 18.3227 51.8539 17.7347 52.2459 16.988C52.6566 16.2227 52.8619 15.364 52.8619 14.412C52.8619 13.46 52.6566 12.6107 52.2459 11.864C51.8539 11.1173 51.3033 10.5293 50.5939 10.1C49.9033 9.67067 49.1193 9.456 48.2419 9.456C47.3646 9.456 46.5713 9.67067 45.8619 10.1C45.1526 10.5293 44.6019 11.1173 44.2099 11.864C43.8179 12.6107 43.6219 13.46 43.6219 14.412C43.6219 15.364 43.8179 16.2227 44.2099 16.988C44.6019 17.7347 45.1433 18.3227 45.8339 18.752C46.5433 19.1813 47.3459 19.396 48.2419 19.396ZM59.6917 27.6V6.852H62.7158V9.988L62.3518 9.26C62.9118 8.40133 63.6584 7.72933 64.5918 7.244C65.5251 6.75867 66.5891 6.516 67.7838 6.516C69.2211 6.516 70.5091 6.86133 71.6478 7.552C72.8051 8.24267 73.7104 9.18533 74.3638 10.38C75.0358 11.5747 75.3718 12.9187 75.3718 14.412C75.3718 15.9053 75.0358 17.2493 74.3638 18.444C73.7104 19.6387 72.8144 20.5907 71.6758 21.3C70.5371 21.9907 69.2398 22.336 67.7838 22.336C66.6078 22.336 65.5344 22.0933 64.5638 21.608C63.6118 21.1227 62.8744 20.4227 62.3518 19.508L62.8558 18.92V27.6H59.6917ZM67.4758 19.396C68.3718 19.396 69.1651 19.1813 69.8558 18.752C70.5464 18.3227 71.0878 17.7347 71.4798 16.988C71.8904 16.2227 72.0958 15.364 72.0958 14.412C72.0958 13.46 71.8904 12.6107 71.4798 11.864C71.0878 11.1173 70.5464 10.5293 69.8558 10.1C69.1651 9.67067 68.3718 9.456 67.4758 9.456C66.5984 9.456 65.8051 9.67067 65.0958 10.1C64.4051 10.5293 63.8544 11.1173 63.4438 11.864C63.0518 12.6107 62.8558 13.46 62.8558 14.412C62.8558 15.364 63.0518 16.2227 63.4438 16.988C63.8544 17.7347 64.4051 18.3227 65.0958 18.752C65.8051 19.1813 66.5984 19.396 67.4758 19.396ZM83.8536 22.336C82.7149 22.336 81.7162 22.084 80.8576 21.58C79.9989 21.0573 79.3269 20.3387 78.8416 19.424C78.3749 18.4907 78.1416 17.4173 78.1416 16.204V6.852H81.3056V15.924C81.3056 16.6147 81.4456 17.2213 81.7256 17.744C82.0056 18.2667 82.3976 18.6773 82.9016 18.976C83.4056 19.256 83.9842 19.396 84.6376 19.396C85.3096 19.396 85.8976 19.2467 86.4016 18.948C86.9056 18.6493 87.2976 18.2293 87.5776 17.688C87.8762 17.1467 88.0256 16.512 88.0256 15.784V6.852H91.1616V22H88.1656V19.032L88.5016 19.424C88.1469 20.3573 87.5589 21.076 86.7376 21.58C85.9162 22.084 84.9549 22.336 83.8536 22.336ZM100.456 22.336C98.9065 22.336 97.5438 21.9533 96.3678 21.188C95.2105 20.4227 94.3985 19.396 93.9318 18.108L96.3678 16.96C96.7785 17.8187 97.3385 18.5 98.0478 19.004C98.7758 19.508 99.5785 19.76 100.456 19.76C101.202 19.76 101.809 19.592 102.276 19.256C102.742 18.92 102.976 18.4627 102.976 17.884C102.976 17.5107 102.873 17.212 102.668 16.988C102.462 16.7453 102.201 16.5493 101.884 16.4C101.585 16.2507 101.277 16.1387 100.96 16.064L98.5798 15.392C97.2731 15.0187 96.2931 14.4587 95.6398 13.712C95.0051 12.9467 94.6878 12.06 94.6878 11.052C94.6878 10.1373 94.9211 9.344 95.3878 8.672C95.8545 7.98133 96.4985 7.44933 97.3198 7.076C98.1411 6.70267 99.0651 6.516 100.092 6.516C101.473 6.516 102.705 6.86133 103.788 7.552C104.87 8.224 105.636 9.16667 106.084 10.38L103.648 11.528C103.349 10.8 102.873 10.2213 102.22 9.792C101.585 9.36267 100.866 9.148 100.064 9.148C99.3731 9.148 98.8225 9.316 98.4118 9.652C98.0011 9.96933 97.7958 10.3893 97.7958 10.912C97.7958 11.2667 97.8891 11.5653 98.0758 11.808C98.2625 12.032 98.5051 12.2187 98.8038 12.368C99.1025 12.4987 99.4105 12.6107 99.7278 12.704L102.192 13.432C103.442 13.7867 104.404 14.3467 105.076 15.112C105.748 15.8587 106.084 16.7547 106.084 17.8C106.084 18.696 105.841 19.4893 105.356 20.18C104.889 20.852 104.236 21.384 103.396 21.776C102.556 22.1493 101.576 22.336 100.456 22.336ZM109.184 22V0.803999H112.348V9.82L111.844 9.428C112.217 8.476 112.815 7.75733 113.636 7.272C114.457 6.768 115.409 6.516 116.492 6.516C117.612 6.516 118.601 6.75867 119.46 7.244C120.319 7.72933 120.991 8.40133 121.476 9.26C121.961 10.1187 122.204 11.0987 122.204 12.2V22H119.068V13.068C119.068 12.3027 118.919 11.6587 118.62 11.136C118.34 10.5947 117.948 10.184 117.444 9.904C116.94 9.60533 116.361 9.456 115.708 9.456C115.073 9.456 114.495 9.60533 113.972 9.904C113.468 10.184 113.067 10.5947 112.768 11.136C112.488 11.6773 112.348 12.3213 112.348 13.068V22H109.184Z" fill="white"/>
</g>
<defs>
<clipPath id="clip0_1_4">
<rect width="124" height="28" fill="white"/>
</clipPath>
</defs>
</svg>
