<svg width="165" height="28" viewBox="0 0 165 28" fill="none" xmlns="http://www.w3.org/2000/svg">
<g clip-path="url(#clip0_46_711)">
<path d="M8.044 22.336C6.532 22.336 5.188 21.9907 4.012 21.3C2.85467 20.5907 1.93067 19.6387 1.24 18.444C0.568 17.2493 0.232 15.896 0.232 14.384C0.232 12.8907 0.568 11.5467 1.24 10.352C1.912 9.15733 2.836 8.224 4.012 7.552C5.188 6.86133 6.532 6.516 8.044 6.516C9.07067 6.516 10.032 6.70267 10.928 7.076C11.824 7.43067 12.5987 7.92533 13.252 8.56C13.924 9.19467 14.4187 9.932 14.736 10.772L11.964 12.06C11.6467 11.276 11.1333 10.6507 10.424 10.184C9.73333 9.69867 8.94 9.456 8.044 9.456C7.18533 9.456 6.41067 9.67067 5.72 10.1C5.048 10.5107 4.516 11.0987 4.124 11.864C3.732 12.6107 3.536 13.46 3.536 14.412C3.536 15.364 3.732 16.2227 4.124 16.988C4.516 17.7347 5.048 18.3227 5.72 18.752C6.41067 19.1813 7.18533 19.396 8.044 19.396C8.95867 19.396 9.752 19.1627 10.424 18.696C11.1147 18.2107 11.628 17.5667 11.964 16.764L14.736 18.08C14.4373 18.8827 13.952 19.6107 13.28 20.264C12.6267 20.8987 11.852 21.4027 10.956 21.776C10.06 22.1493 9.08933 22.336 8.044 22.336ZM25.1365 22.336C23.6805 22.336 22.3458 21.9907 21.1325 21.3C19.9378 20.6093 18.9858 19.6667 18.2765 18.472C17.5671 17.2773 17.2125 15.924 17.2125 14.412C17.2125 12.8813 17.5671 11.528 18.2765 10.352C18.9858 9.15733 19.9378 8.224 21.1325 7.552C22.3271 6.86133 23.6618 6.516 25.1365 6.516C26.6298 6.516 27.9645 6.86133 29.1405 7.552C30.3351 8.224 31.2778 9.15733 31.9685 10.352C32.6778 11.528 33.0325 12.8813 33.0325 14.412C33.0325 15.9427 32.6778 17.3053 31.9685 18.5C31.2591 19.6947 30.3071 20.6373 29.1125 21.328C27.9178 22 26.5925 22.336 25.1365 22.336ZM25.1365 19.396C26.0325 19.396 26.8258 19.1813 27.5165 18.752C28.2071 18.3227 28.7485 17.7347 29.1405 16.988C29.5511 16.2227 29.7565 15.364 29.7565 14.412C29.7565 13.46 29.5511 12.6107 29.1405 11.864C28.7485 11.1173 28.2071 10.5293 27.5165 10.1C26.8258 9.67067 26.0325 9.456 25.1365 9.456C24.2591 9.456 23.4658 9.67067 22.7565 10.1C22.0658 10.5293 21.5151 11.1173 21.1045 11.864C20.7125 12.6107 20.5165 13.46 20.5165 14.412C20.5165 15.364 20.7125 16.2227 21.1045 16.988C21.5151 17.7347 22.0658 18.3227 22.7565 18.752C23.4658 19.1813 24.2591 19.396 25.1365 19.396ZM36.1214 22V6.852H39.1454V10.128L38.7534 9.624C39.0708 8.59733 39.6494 7.82267 40.4894 7.3C41.3294 6.77733 42.2908 6.516 43.3734 6.516C44.5868 6.516 45.6601 6.84267 46.5934 7.496C47.5454 8.13067 48.1801 8.98 48.4974 10.044L47.6014 10.128C48.0494 8.91467 48.7308 8.00933 49.6454 7.412C50.5788 6.81467 51.6428 6.516 52.8374 6.516C53.8828 6.516 54.8254 6.75867 55.6654 7.244C56.5241 7.72933 57.2054 8.40133 57.7094 9.26C58.2134 10.1187 58.4654 11.0987 58.4654 12.2V22H55.3014V13.068C55.3014 12.3027 55.1614 11.6587 54.8814 11.136C54.6201 10.5947 54.2468 10.184 53.7614 9.904C53.2948 9.60533 52.7441 9.456 52.1094 9.456C51.4748 9.456 50.9148 9.60533 50.4294 9.904C49.9441 10.184 49.5614 10.5947 49.2814 11.136C49.0014 11.6773 48.8614 12.3213 48.8614 13.068V22H45.7254V13.068C45.7254 12.3027 45.5854 11.6587 45.3054 11.136C45.0441 10.5947 44.6708 10.184 44.1854 9.904C43.7188 9.60533 43.1588 9.456 42.5054 9.456C41.8708 9.456 41.3108 9.60533 40.8254 9.904C40.3401 10.184 39.9574 10.5947 39.6774 11.136C39.4161 11.6773 39.2854 12.3213 39.2854 13.068V22H36.1214ZM61.8519 22V6.852H64.8759V10.128L64.4839 9.624C64.8012 8.59733 65.3799 7.82267 66.2199 7.3C67.0599 6.77733 68.0212 6.516 69.1039 6.516C70.3172 6.516 71.3906 6.84267 72.3239 7.496C73.2759 8.13067 73.9106 8.98 74.2279 10.044L73.3319 10.128C73.7799 8.91467 74.4612 8.00933 75.3759 7.412C76.3092 6.81467 77.3732 6.516 78.5679 6.516C79.6132 6.516 80.5559 6.75867 81.3959 7.244C82.2546 7.72933 82.9359 8.40133 83.4399 9.26C83.9439 10.1187 84.1959 11.0987 84.1959 12.2V22H81.0319V13.068C81.0319 12.3027 80.8919 11.6587 80.6119 11.136C80.3506 10.5947 79.9772 10.184 79.4919 9.904C79.0252 9.60533 78.4746 9.456 77.8399 9.456C77.2052 9.456 76.6452 9.60533 76.1599 9.904C75.6746 10.184 75.2919 10.5947 75.0119 11.136C74.7319 11.6773 74.5919 12.3213 74.5919 13.068V22H71.4559V13.068C71.4559 12.3027 71.3159 11.6587 71.0359 11.136C70.7746 10.5947 70.4012 10.184 69.9159 9.904C69.4492 9.60533 68.8892 9.456 68.2359 9.456C67.6012 9.456 67.0412 9.60533 66.5559 9.904C66.0706 10.184 65.6879 10.5947 65.4079 11.136C65.1466 11.6773 65.0159 12.3213 65.0159 13.068V22H61.8519ZM94.6944 22.336C93.1824 22.336 91.8384 21.9907 90.6624 21.3C89.505 20.5907 88.5997 19.6387 87.9464 18.444C87.293 17.2307 86.9664 15.8773 86.9664 14.384C86.9664 12.8533 87.293 11.5 87.9464 10.324C88.6184 9.148 89.5144 8.224 90.6344 7.552C91.7544 6.86133 93.0237 6.516 94.4424 6.516C95.581 6.516 96.5984 6.712 97.4944 7.104C98.3904 7.496 99.1464 8.03733 99.7624 8.728C100.378 9.4 100.845 10.1747 101.162 11.052C101.498 11.9293 101.666 12.8627 101.666 13.852C101.666 14.0947 101.657 14.3467 101.638 14.608C101.62 14.8693 101.582 15.112 101.526 15.336H89.4584V12.816H99.7344L98.2224 13.964C98.409 13.0493 98.3437 12.2373 98.0264 11.528C97.7277 10.8 97.261 10.2307 96.6264 9.82C96.0104 9.39067 95.2824 9.176 94.4424 9.176C93.6024 9.176 92.8557 9.39067 92.2024 9.82C91.549 10.2307 91.045 10.828 90.6904 11.612C90.3357 12.3773 90.1957 13.3107 90.2704 14.412C90.177 15.4387 90.317 16.3347 90.6904 17.1C91.0824 17.8653 91.6237 18.4627 92.3144 18.892C93.0237 19.3213 93.8264 19.536 94.7224 19.536C95.637 19.536 96.4117 19.3307 97.0464 18.92C97.6997 18.5093 98.213 17.9773 98.5864 17.324L101.162 18.584C100.864 19.2933 100.397 19.9373 99.7624 20.516C99.1464 21.076 98.3997 21.524 97.5224 21.86C96.6637 22.1773 95.721 22.336 94.6944 22.336ZM104.754 22V6.852H107.778V9.82L107.414 9.428C107.788 8.476 108.385 7.75733 109.206 7.272C110.028 6.768 110.98 6.516 112.062 6.516C113.182 6.516 114.172 6.75867 115.03 7.244C115.889 7.72933 116.561 8.40133 117.046 9.26C117.532 10.1187 117.774 11.108 117.774 12.228V22H114.638V13.068C114.638 12.3027 114.498 11.6587 114.218 11.136C113.938 10.5947 113.537 10.184 113.014 9.904C112.51 9.60533 111.932 9.456 111.278 9.456C110.625 9.456 110.037 9.60533 109.514 9.904C109.01 10.184 108.618 10.5947 108.338 11.136C108.058 11.6773 107.918 12.3213 107.918 13.068V22H104.754ZM127.713 22.168C126.126 22.168 124.894 21.72 124.017 20.824C123.139 19.928 122.701 18.668 122.701 17.044V9.708H120.041V6.852H120.461C121.17 6.852 121.721 6.64667 122.113 6.236C122.505 5.82533 122.701 5.26533 122.701 4.556V3.38H125.865V6.852H129.309V9.708H125.865V16.904C125.865 17.4267 125.949 17.8747 126.117 18.248C126.285 18.6027 126.555 18.8827 126.929 19.088C127.302 19.2747 127.787 19.368 128.385 19.368C128.534 19.368 128.702 19.3587 128.889 19.34C129.075 19.3213 129.253 19.3027 129.421 19.284V22C129.159 22.0373 128.87 22.0747 128.553 22.112C128.235 22.1493 127.955 22.168 127.713 22.168ZM132.508 22V6.852H135.672V22H132.508ZM132.508 4.78V1.14H135.672V4.78H132.508ZM141.079 22V9.708H138.279V6.852H141.079V6.068C141.079 4.92933 141.313 3.97733 141.779 3.212C142.246 2.428 142.89 1.83067 143.711 1.42C144.551 1.00933 145.513 0.803999 146.595 0.803999C146.801 0.803999 147.034 0.822666 147.295 0.859998C147.557 0.878666 147.771 0.906666 147.939 0.943999V3.688C147.79 3.65067 147.622 3.632 147.435 3.632C147.249 3.61333 147.099 3.604 146.987 3.604C146.147 3.604 145.475 3.8 144.971 4.192C144.467 4.56533 144.215 5.19067 144.215 6.068V6.852H147.687V9.708H144.215V22H141.079ZM151.981 28.188C151.608 28.188 151.234 28.1507 150.861 28.076C150.506 28.02 150.18 27.9267 149.881 27.796V25.08C150.105 25.136 150.376 25.1827 150.693 25.22C151.01 25.276 151.318 25.304 151.617 25.304C152.494 25.304 153.138 25.108 153.549 24.716C153.978 24.3427 154.361 23.7547 154.697 22.952L155.705 20.656L155.649 23.316L149.097 6.852H152.485L157.329 19.48H156.181L160.997 6.852H164.413L157.721 23.652C157.366 24.548 156.918 25.332 156.377 26.004C155.854 26.6947 155.229 27.2267 154.501 27.6C153.792 27.992 152.952 28.188 151.981 28.188Z" fill="black"/>
</g>
<defs>
<clipPath id="clip0_46_711">
<rect width="165" height="28" fill="white"/>
</clipPath>
</defs>
</svg>
